<?xml version="1.0" encoding="utf-8"?>
<!-- Generator: Adobe Illustrator 24.2.0, SVG Export Plug-In . SVG Version: 6.00 Build 0)  -->
<svg version="1.1" id="Camada_1" xmlns="http://www.w3.org/2000/svg" xmlns:xlink="http://www.w3.org/1999/xlink" x="0px" y="0px"
	 viewBox="0 0 85 17" style="enable-background:new 0 0 85 17;" xml:space="preserve">
<style type="text/css">
	.st0{fill:#1E1E1E;}
	.st1{fill:#4B4B4D;}
</style>
<g>
	<path class="st0" d="M8.75,0.5c-0.03,0-0.05,0-0.08,0L5.76,0.5L0.46,15.05l3.68,0l2.12-5.83l2.65,7.28l2.22,0L8.42,9.03
		c0.11,0.01,0.22,0.01,0.33,0.01c0.02,0,0.05,0,0.07,0L7.86,6.42C7.69,6.33,7.54,6.22,7.41,6.08l1.15-3.17
		C8.62,2.9,8.68,2.9,8.75,2.9c1.03,0,1.87,0.84,1.87,1.87c0,0.39-0.12,0.75-0.32,1.05l0.9,2.45c1.1-0.77,1.82-2.05,1.82-3.5
		C13.02,2.42,11.11,0.5,8.75,0.5z"/>
	<g>
		<path class="st1" d="M15.33,0.51l-3.69,10.13L8.89,3.08L8.88,3.09L8.87,3.07L7.69,6.32c0.05,0.04,0.1,0.07,0.16,0.1l3.67,10.08
			l1.73,0l5.82-15.99L15.33,0.51z"/>
		<polygon class="st1" points="4.54,15.05 5.62,15.05 7,11.24 6.46,9.75 		"/>
	</g>
</g>
<g>
	<g>
		<path class="st1" d="M20.62,4.62h1.37v8.19h-1.37V4.62z M21.25,8h1.47c0.12,0,0.22-0.02,0.31-0.06c0.09-0.04,0.15-0.1,0.2-0.19
			c0.05-0.08,0.07-0.18,0.07-0.29V6.55c0-0.12-0.02-0.23-0.07-0.32c-0.04-0.09-0.11-0.16-0.2-0.21c-0.09-0.05-0.19-0.07-0.31-0.07
			h-1.47V4.62h1.39c0.44,0,0.82,0.07,1.13,0.22c0.31,0.14,0.55,0.36,0.72,0.64c0.17,0.28,0.25,0.61,0.25,1v0.96
			c0,0.4-0.08,0.75-0.25,1.03c-0.17,0.29-0.41,0.51-0.72,0.66c-0.31,0.15-0.69,0.23-1.13,0.23h-1.39V8z M22.38,9.09l1.28-0.26
			l1.31,3.97h-1.5L22.38,9.09z"/>
		<path class="st1" d="M26.57,12.7c-0.26-0.13-0.46-0.31-0.6-0.55s-0.21-0.52-0.21-0.86V8.43c0-0.33,0.07-0.61,0.21-0.85
			s0.34-0.41,0.6-0.53s0.58-0.18,0.94-0.18s0.68,0.06,0.95,0.18s0.46,0.3,0.6,0.53c0.14,0.23,0.21,0.52,0.21,0.85v2.89
			c0,0.33-0.07,0.61-0.21,0.85c-0.14,0.24-0.34,0.42-0.6,0.54s-0.58,0.19-0.95,0.19S26.83,12.83,26.57,12.7z M27.79,11.52
			c0.06-0.08,0.1-0.18,0.1-0.33V8.53c0-0.13-0.03-0.24-0.1-0.31c-0.06-0.07-0.16-0.11-0.28-0.11c-0.11,0-0.2,0.04-0.27,0.11
			c-0.07,0.08-0.1,0.18-0.1,0.31v2.66c0,0.14,0.03,0.25,0.1,0.33c0.07,0.08,0.16,0.11,0.27,0.11C27.63,11.63,27.72,11.6,27.79,11.52
			z"/>
		<path class="st1" d="M30.25,4.62h1.4v8.18h-1.4V4.62z M32.01,12.63c-0.2-0.17-0.34-0.42-0.44-0.74l0.08-0.82
			c0,0.12,0.02,0.22,0.05,0.31c0.04,0.08,0.09,0.15,0.15,0.19c0.07,0.04,0.15,0.07,0.24,0.07c0.14,0,0.25-0.05,0.32-0.15
			s0.11-0.25,0.11-0.43V8.68c0-0.18-0.04-0.31-0.11-0.41s-0.18-0.15-0.32-0.15c-0.1,0-0.18,0.02-0.24,0.06
			c-0.07,0.04-0.12,0.1-0.15,0.18s-0.05,0.18-0.05,0.3l-0.12-0.73c0.13-0.34,0.3-0.6,0.51-0.79c0.21-0.19,0.44-0.28,0.69-0.28
			c0.25,0,0.46,0.06,0.64,0.19c0.18,0.13,0.31,0.31,0.4,0.55s0.14,0.53,0.14,0.87v2.77c0,0.34-0.05,0.64-0.14,0.89
			c-0.09,0.25-0.23,0.44-0.41,0.56c-0.18,0.13-0.4,0.19-0.65,0.19C32.44,12.89,32.21,12.8,32.01,12.63z"/>
		<path class="st1" d="M35.47,12.66c-0.28-0.15-0.49-0.36-0.65-0.63c-0.15-0.27-0.23-0.58-0.23-0.93v-0.1L35.89,11v0.09
			c0,0.16,0.05,0.29,0.15,0.4c0.1,0.1,0.23,0.15,0.39,0.15c0.16,0,0.28-0.05,0.38-0.14s0.14-0.22,0.14-0.37
			c0-0.12-0.03-0.23-0.1-0.32s-0.16-0.16-0.26-0.21s-0.25-0.12-0.44-0.19c-0.03-0.01-0.07-0.03-0.1-0.04s-0.07-0.03-0.1-0.04
			c-0.01,0-0.02-0.01-0.03-0.01c-0.01,0-0.02-0.01-0.03-0.01c-0.23-0.1-0.44-0.22-0.61-0.35c-0.17-0.13-0.32-0.31-0.43-0.53
			c-0.11-0.22-0.17-0.5-0.17-0.82c0-0.34,0.07-0.64,0.21-0.91c0.14-0.26,0.34-0.47,0.6-0.61s0.56-0.22,0.89-0.22
			c0.34,0,0.64,0.07,0.9,0.21c0.26,0.14,0.46,0.34,0.6,0.6c0.14,0.26,0.22,0.56,0.22,0.89v0.1l-1.3,0.02V8.57
			c0-0.13-0.04-0.24-0.12-0.33c-0.08-0.08-0.18-0.13-0.3-0.13c-0.12,0-0.22,0.04-0.29,0.14c-0.08,0.09-0.11,0.21-0.11,0.35
			s0.04,0.26,0.11,0.35c0.08,0.09,0.17,0.17,0.29,0.22c0.12,0.06,0.27,0.12,0.47,0.19c0.01,0,0.01,0.01,0.02,0.01
			c0.01,0,0.01,0,0.02,0.01c0.01,0,0.02,0.01,0.02,0.01s0.02,0,0.02,0.01c0.27,0.09,0.5,0.2,0.68,0.31s0.34,0.29,0.46,0.51
			c0.13,0.23,0.19,0.53,0.19,0.91c0,0.35-0.08,0.66-0.23,0.92c-0.15,0.27-0.37,0.47-0.64,0.62c-0.28,0.15-0.6,0.22-0.96,0.22
			C36.07,12.89,35.75,12.81,35.47,12.66z"/>
		<path class="st1" d="M39.72,12.7c-0.26-0.13-0.46-0.31-0.6-0.55s-0.21-0.52-0.21-0.86V8.43c0-0.33,0.07-0.61,0.21-0.85
			s0.34-0.41,0.6-0.53s0.58-0.18,0.94-0.18s0.68,0.06,0.95,0.18s0.46,0.3,0.6,0.53c0.14,0.23,0.21,0.52,0.21,0.85v2.89
			c0,0.33-0.07,0.61-0.21,0.85c-0.14,0.24-0.34,0.42-0.6,0.54s-0.58,0.19-0.95,0.19S39.99,12.83,39.72,12.7z M40.94,11.52
			c0.06-0.08,0.1-0.18,0.1-0.33V8.53c0-0.13-0.03-0.24-0.1-0.31c-0.06-0.07-0.16-0.11-0.28-0.11c-0.11,0-0.2,0.04-0.27,0.11
			c-0.07,0.08-0.1,0.18-0.1,0.31v2.66c0,0.14,0.03,0.25,0.1,0.33c0.07,0.08,0.16,0.11,0.27,0.11C40.79,11.63,40.88,11.6,40.94,11.52
			z"/>
		<path class="st1" d="M43.41,6.96h1.41v5.84h-1.41V6.96z M45.71,8.68c0-0.18-0.04-0.32-0.11-0.42s-0.19-0.14-0.34-0.14
			c-0.15,0-0.26,0.05-0.33,0.14c-0.07,0.09-0.11,0.23-0.11,0.42L44.7,7.98c0.12-0.36,0.29-0.64,0.51-0.83
			c0.22-0.19,0.47-0.29,0.75-0.29c0.36,0,0.64,0.13,0.84,0.39c0.2,0.26,0.3,0.62,0.3,1.09v4.46h-1.39V8.68z"/>
		<path class="st1" d="M50.48,4.62h1.1l1.92,5.46l-0.15,0.22V4.62h1.27v8.18h-1.11l-1.9-5.14l0.15-0.23v5.37h-1.28V4.62z"/>
		<path class="st1" d="M55.94,12.46c-0.23-0.28-0.34-0.7-0.34-1.24c0-0.62,0.17-1.1,0.5-1.43c0.33-0.33,0.81-0.49,1.44-0.49h0.43
			l0.08,1.11H57.6c-0.23,0-0.4,0.07-0.51,0.21s-0.17,0.34-0.17,0.61c0,0.17,0.04,0.3,0.11,0.38c0.07,0.09,0.18,0.13,0.32,0.13
			c0.19,0,0.34-0.05,0.45-0.16c0.11-0.11,0.16-0.26,0.16-0.46l0.1,0.49c0,0.28-0.05,0.51-0.14,0.71s-0.21,0.34-0.37,0.44
			c-0.16,0.1-0.36,0.15-0.59,0.15C56.5,12.89,56.16,12.75,55.94,12.46z M57.94,8.61c0-0.15-0.04-0.27-0.12-0.35
			c-0.08-0.08-0.2-0.12-0.35-0.12c-0.13,0-0.23,0.04-0.31,0.13s-0.11,0.2-0.11,0.36h-1.33c0-0.56,0.16-0.99,0.46-1.29
			c0.31-0.31,0.74-0.46,1.3-0.46c0.38,0,0.7,0.07,0.96,0.21c0.27,0.14,0.47,0.34,0.61,0.6c0.14,0.26,0.21,0.58,0.21,0.95v4.19h-1.32
			V8.61z"/>
		<path class="st1" d="M59.92,6.96h2.65v1.28h-2.65V6.96z M60.8,12.44c-0.25-0.26-0.37-0.65-0.37-1.16V5.26h1.39v5.8
			c0,0.13,0.03,0.23,0.09,0.29c0.06,0.07,0.15,0.1,0.26,0.1h0.4v1.37h-0.61C61.43,12.83,61.05,12.7,60.8,12.44z"/>
		<path class="st1" d="M63.66,12.46c-0.23-0.28-0.34-0.7-0.34-1.24c0-0.62,0.17-1.1,0.5-1.43c0.33-0.33,0.81-0.49,1.44-0.49h0.43
			l0.08,1.11h-0.44c-0.23,0-0.4,0.07-0.51,0.21s-0.17,0.34-0.17,0.61c0,0.17,0.04,0.3,0.11,0.38c0.07,0.09,0.18,0.13,0.32,0.13
			c0.19,0,0.34-0.05,0.45-0.16c0.11-0.11,0.16-0.26,0.16-0.46l0.1,0.49c0,0.28-0.05,0.51-0.14,0.71s-0.21,0.34-0.37,0.44
			c-0.16,0.1-0.36,0.15-0.59,0.15C64.22,12.89,63.89,12.75,63.66,12.46z M65.67,8.61c0-0.15-0.04-0.27-0.12-0.35
			c-0.08-0.08-0.2-0.12-0.35-0.12c-0.13,0-0.23,0.04-0.31,0.13s-0.11,0.2-0.11,0.36h-1.33c0-0.56,0.16-0.99,0.46-1.29
			c0.31-0.31,0.74-0.46,1.3-0.46c0.38,0,0.7,0.07,0.96,0.21c0.27,0.14,0.47,0.34,0.61,0.6c0.14,0.26,0.21,0.58,0.21,0.95v4.19h-1.32
			V8.61z"/>
		<path class="st1" d="M68.1,6.96h1.41v5.84H68.1V6.96z M70.4,8.68c0-0.18-0.04-0.32-0.11-0.42c-0.07-0.1-0.19-0.14-0.34-0.14
			c-0.15,0-0.26,0.05-0.33,0.14c-0.07,0.09-0.11,0.23-0.11,0.42l-0.12-0.69c0.12-0.36,0.29-0.64,0.51-0.83
			c0.22-0.19,0.47-0.29,0.75-0.29c0.36,0,0.64,0.13,0.84,0.39c0.2,0.26,0.3,0.62,0.3,1.09v4.46h-1.4V8.68z"/>
		<path class="st1" d="M73.17,12.46c-0.23-0.28-0.34-0.7-0.34-1.24c0-0.62,0.17-1.1,0.5-1.43c0.33-0.33,0.81-0.49,1.44-0.49h0.43
			l0.08,1.11h-0.44c-0.23,0-0.4,0.07-0.51,0.21s-0.17,0.34-0.17,0.61c0,0.17,0.04,0.3,0.11,0.38c0.07,0.09,0.18,0.13,0.32,0.13
			c0.19,0,0.34-0.05,0.45-0.16c0.11-0.11,0.16-0.26,0.16-0.46l0.1,0.49c0,0.28-0.05,0.51-0.14,0.71s-0.21,0.34-0.37,0.44
			c-0.16,0.1-0.36,0.15-0.59,0.15C73.73,12.89,73.4,12.75,73.17,12.46z M75.17,8.61c0-0.15-0.04-0.27-0.12-0.35
			c-0.08-0.08-0.2-0.12-0.35-0.12c-0.13,0-0.23,0.04-0.31,0.13s-0.11,0.2-0.11,0.36h-1.33c0-0.56,0.16-0.99,0.46-1.29
			c0.31-0.31,0.74-0.46,1.3-0.46c0.38,0,0.7,0.07,0.96,0.21c0.27,0.14,0.47,0.34,0.61,0.6c0.14,0.26,0.21,0.58,0.21,0.95v4.19h-1.32
			V8.61z"/>
		<path class="st1" d="M78.34,12.68c-0.28-0.14-0.49-0.34-0.63-0.61c-0.15-0.27-0.22-0.59-0.22-0.97V8.76c0-0.4,0.07-0.74,0.21-1.03
			s0.35-0.5,0.62-0.65c0.27-0.15,0.59-0.22,0.97-0.22c0.39,0,0.72,0.07,0.99,0.22c0.27,0.14,0.48,0.36,0.63,0.63
			c0.14,0.28,0.22,0.61,0.22,1.01v1.65h-2.5V9.35h1.15v-0.7c0-0.17-0.04-0.31-0.13-0.41c-0.08-0.1-0.2-0.15-0.35-0.15
			c-0.14,0-0.25,0.05-0.33,0.15c-0.08,0.1-0.12,0.25-0.12,0.44v2.44c0,0.16,0.04,0.29,0.13,0.37c0.08,0.09,0.21,0.13,0.36,0.13
			c0.15,0,0.26-0.04,0.34-0.11c0.08-0.07,0.12-0.17,0.12-0.3v-0.2l1.34,0.01v0.16c0,0.54-0.16,0.95-0.47,1.25
			c-0.32,0.29-0.76,0.44-1.33,0.44C78.94,12.89,78.61,12.82,78.34,12.68z"/>
		<path class="st1" d="M83.52,11.03c0,0.13,0.03,0.23,0.1,0.29c0.07,0.07,0.16,0.1,0.27,0.1h0.17v1.37h-0.51
			c-0.45,0-0.8-0.13-1.05-0.41c-0.25-0.27-0.38-0.65-0.38-1.14V4.62h1.4V11.03z"/>
	</g>
</g>
</svg>
